<?xml version="1.0" encoding="iso-8859-1"?>
<!-- Generator: Adobe Illustrator 19.0.0, SVG Export Plug-In . SVG Version: 6.00 Build 0)  -->
<svg version="1.1" id="Layer_1" xmlns="http://www.w3.org/2000/svg" xmlns:xlink="http://www.w3.org/1999/xlink" x="0px" y="0px"
	 viewBox="0 0 512 512" style="enable-background:new 0 0 512 512;" xml:space="preserve">
<rect x="7.838" y="55.873" style="fill:#FEC986;" width="496.327" height="400.26"/>
<g>
	<rect x="39.861" y="127.913" style="fill:#9B4573;" width="48.032" height="72.047"/>
	<path style="fill:#9B4573;" d="M450.602,199.964h-4.957c-11.895,0-21.536-9.643-21.536-21.537v-26.495
		c0-13.263,10.752-24.016,24.016-24.016l0,0c13.263,0,24.016,10.752,24.016,24.016v26.495
		C472.14,190.322,462.498,199.964,450.602,199.964z"/>
</g>
<circle style="fill:#C8546F;" cx="256.002" cy="256.003" r="144.091"/>
<circle style="fill:#9B4573;" cx="256.002" cy="256.003" r="104.073"/>
<polygon style="fill:#FEB860;" points="247.994,175.949 247.994,336.052 257.048,336.052 320.042,247.994 257.048,175.981 "/>
<path style="fill:#C8546F;" d="M247.642,295.954c-17.684,0-31.669-22.269-31.669-39.954s14.337-36.397,32.021-36.397
	L247.642,295.954z"/>
<g>
	<path style="fill:#1D1D1B;" d="M255.999,407.932c-83.776,0-151.932-68.156-151.932-151.932s68.156-151.932,151.932-151.932
		S407.931,172.224,407.931,256S339.775,407.932,255.999,407.932z M255.999,119.745c-75.132,0-136.255,61.124-136.255,136.255
		s61.125,136.255,136.255,136.255S392.254,331.132,392.254,256S331.131,119.745,255.999,119.745z"/>
	<path style="fill:#1D1D1B;" d="M255.999,367.906c-61.705,0-111.905-50.201-111.905-111.906s50.2-111.906,111.905-111.906
		S367.905,194.295,367.905,256S317.704,367.906,255.999,367.906z M255.999,159.771c-53.061,0-96.228,43.169-96.228,96.229
		s43.169,96.229,96.228,96.229c53.062,0,96.229-43.169,96.229-96.229S309.061,159.771,255.999,159.771z"/>
	<rect x="56.036" y="127.913" style="fill:#1D1D1B;" width="15.677" height="56.036"/>
	<polygon style="fill:#1D1D1B;" points="95.729,127.917 80.052,127.917 80.052,192.125 47.697,192.125 47.697,127.917 
		32.02,127.917 32.02,207.802 56.036,207.802 56.036,376.079 71.713,376.079 71.713,207.802 95.729,207.802 	"/>
	<path style="fill:#1D1D1B;" d="M448.124,120.079c-17.564,0-31.854,14.29-31.854,31.854v24.016c0,14.861,10.23,27.373,24.016,30.875
		v169.255h15.677V206.824c13.785-3.502,24.016-16.014,24.016-30.875v-24.016C479.979,134.368,465.689,120.079,448.124,120.079z
		 M464.302,175.949c0,8.92-7.256,16.177-16.177,16.177c-8.921,0-16.177-7.256-16.177-16.177v-24.016
		c0-8.92,7.256-16.177,16.177-16.177c8.921,0,16.177,7.256,16.177,16.177V175.949z"/>
	<path style="fill:#1D1D1B;" d="M259.519,168.111h-19.363v42.717c-18.886,6.632-32.021,24.698-32.021,45.173
		s13.134,38.541,32.021,45.173v42.717h19.835l70.1-96.388L259.519,168.111z M223.811,256c0-11.807,6.492-22.42,16.345-28.019v56.036
		C230.304,278.42,223.811,267.807,223.811,256z M255.833,322.955V187.559l54.158,60.927L255.833,322.955z"/>
	<path style="fill:#1D1D1B;" d="M471.568,439.954h-33.164v-15.677h33.164V439.954z M421.822,439.954h-33.164v-15.677h33.164V439.954
		z M372.076,439.954h-33.165v-15.677h33.165V439.954z M322.329,439.954h-33.164v-15.677h33.164V439.954z M272.582,439.954h-33.164
		v-15.677h33.164V439.954z M222.835,439.954h-33.164v-15.677h33.164V439.954z M173.089,439.954h-33.164v-15.677h33.164V439.954z
		 M123.343,439.954H90.177v-15.677h33.165v15.677H123.343z M73.595,439.954H40.432v-15.677h33.164V439.954z"/>
	<path style="fill:#1D1D1B;" d="M471.568,87.845h-33.164V72.169h33.164V87.845z M421.822,87.845h-33.164V72.169h33.164V87.845z
		 M372.076,87.845h-33.165V72.169h33.165V87.845z M322.329,87.845h-33.164V72.169h33.164V87.845z M272.582,87.845h-33.164V72.169
		h33.164V87.845z M222.835,87.845h-33.164V72.169h33.164V87.845z M173.089,87.845h-33.164V72.169h33.164V87.845z M123.343,87.845
		H90.177V72.169h33.165v15.677H123.343z M73.595,87.845H40.432V72.169h33.164V87.845z"/>
	<path style="fill:#1D1D1B;" d="M0,48.032v415.937h512V48.032H0z M15.677,448.293v-8.339h8.172v-15.677h-8.172V87.845h8.172V72.169
		h-8.172v-8.46h480.646v8.46h-8.172v15.677h8.172v336.431h-8.172v15.677h8.172v8.339L15.677,448.293L15.677,448.293z"/>
</g>
<g>
</g>
<g>
</g>
<g>
</g>
<g>
</g>
<g>
</g>
<g>
</g>
<g>
</g>
<g>
</g>
<g>
</g>
<g>
</g>
<g>
</g>
<g>
</g>
<g>
</g>
<g>
</g>
<g>
</g>
</svg>
